PathFileType	4	(X/Y/Z)	s10c0302.trc
DataRate	CameraRate	NumFrames	NumMarkers	Units	OrigDataRate	OrigDataStartFrame	OrigNumFrames
200	200	5	50	mm	200	750	2000
Frame#	Time	racr			lacr			c7			jug			rlel			rdr			llel			ldr			s2			lic			ric			lasi			rasi			rpsi			lpsi			rgt			lgt			rth1			rth2			rth3			rth4			rlfc			rmfc			rsh1			rsh2			rsh3			rsh4			rlmal			rmmal			rcal			rtoe			rmt5			lth1			lth2			lth4			lth3			llfc			lmfc			llmal			lmmal			lcal			lmt5			lsh1			lsh2			lsh3			lsh4			ltoe			SBIKE			LBIKE			RBIKE			
		X1	Y1	Z1	X2	Y2	Z2	X3	Y3	Z3	X4	Y4	Z4	X5	Y5	Z5	X6	Y6	Z6	X7	Y7	Z7	X8	Y8	Z8	X9	Y9	Z9	X10	Y10	Z10	X11	Y11	Z11	X12	Y12	Z12	X13	Y13	Z13	X14	Y14	Z14	X15	Y15	Z15	X16	Y16	Z16	X17	Y17	Z17	X18	Y18	Z18	X19	Y19	Z19	X20	Y20	Z20	X21	Y21	Z21	X22	Y22	Z22	X23	Y23	Z23	X24	Y24	Z24	X25	Y25	Z25	X26	Y26	Z26	X27	Y27	Z27	X28	Y28	Z28	X29	Y29	Z29	X30	Y30	Z30	X31	Y31	Z31	X32	Y32	Z32	X33	Y33	Z33	X34	Y34	Z34	X35	Y35	Z35	X36	Y36	Z36	X37	Y37	Z37	X38	Y38	Z38	X39	Y39	Z39	X40	Y40	Z40	X41	Y41	Z41	X42	Y42	Z42	X43	Y43	Z43	X44	Y44	Z44	X45	Y45	Z45	X46	Y46	Z46	X47	Y47	Z47	X48	Y48	Z48	X49	Y49	Z49	X50	Y50	Z50	
750	3.7500	601.894907	1299.864911	-25.669446	601.631510	1252.543347	-357.632059	574.498798	1334.165245	-195.631125	564.342759	1189.709278	-171.844591	525.439292	1041.763822	59.671316	640.346635	881.353305	-49.394075	492.850921	1022.616411	-490.890905	639.474317	883.620483	-415.620340	54.429236	1142.334249	-281.260095	253.646953	1132.172000	-392.218133	194.873178	1164.739317	-102.373556	260.006248	1048.619773	-348.049869	194.128520	1085.569772	-106.556244	88.558916	1203.462665	-229.970413	122.073528	1198.478600	-329.588844	86.321211	1073.080360	-65.609451	130.612441	1007.703734	-438.663298	191.021799	989.784511	-21.205713	279.284421	976.427022	-18.416725	344.307019	924.032455	-3.719708	293.343944	1009.202240	-29.444598	442.327107	872.109806	-6.070598	454.808086	849.419723	-128.645233	349.725465	802.369895	9.925258	303.653447	729.935772	-12.262630	228.047536	690.856545	-27.556387	327.572109	711.211519	-35.063564	149.424815	615.890098	-56.185879	185.065099	622.151228	-132.662021	96.260098	625.379112	-104.458959	284.253331	471.041105	-105.928152	203.679931	497.192798	-42.676360	147.929410	891.152546	-450.291587	177.721014	812.246381	-430.993920	212.417987	817.523686	-419.352401	162.238994	725.418369	-417.740487	175.673109	622.043224	-392.460773	158.328839	617.108762	-277.344889	58.472134	264.695743	-394.292299	77.792407	282.102255	-303.991547	4.233816	257.263795	-351.761671	142.922195	140.365181	-402.559385	113.748968	516.837596	-428.100075	120.632415	431.301464	-414.070396	82.189719	350.596683	-411.395337	149.238096	428.900368	-388.860087	228.346986	136.829654	-341.262547	-217.771476	832.085881	-214.530957	-103.972832	80.421718	-418.322761	-103.994186	80.486732	-18.401963	
751	3.7550	605.307416	1296.598465	-24.791848	600.727059	1255.636381	-356.344694	575.722959	1334.382442	-193.357678	564.881920	1189.843437	-171.353104	524.565454	1040.022604	61.705586	640.213483	881.562195	-49.140393	493.129298	1024.290538	-488.761990	639.870354	883.646636	-415.497896	55.143777	1146.865079	-281.163433	253.830106	1136.022339	-391.087512	194.434263	1167.212425	-100.913878	259.681698	1052.180109	-347.473731	192.817480	1088.424630	-106.066100	89.013974	1207.484865	-229.447658	122.689771	1202.690675	-328.784667	84.807537	1076.625855	-65.658906	130.325222	1011.746749	-438.686911	189.316148	992.471207	-21.982139	277.574632	979.115681	-19.567378	342.648549	926.812288	-5.100281	291.515144	1012.216154	-30.086310	441.530008	875.942309	-7.885921	453.416120	853.698086	-130.800481	350.146800	804.483155	7.938759	305.150358	730.967941	-13.317674	230.125172	690.679206	-28.245319	329.609754	712.263313	-35.976342	152.612704	613.153826	-56.225329	187.567748	620.667669	-132.504214	98.662413	620.484701	-104.025937	291.984668	473.154763	-105.962501	210.435286	496.243308	-42.467900	146.856516	894.988216	-450.430768	176.110867	815.839831	-431.407151	210.984576	820.857242	-420.031637	160.018946	729.144064	-417.876544	172.232959	625.728437	-393.261563	155.267410	620.967057	-276.999680	54.226763	268.548661	-395.052071	72.590420	284.923539	-304.473777	0.116109	262.465523	-351.834925	135.484114	141.829466	-402.435157	109.694676	520.698041	-428.353839	116.545630	435.264988	-414.836346	78.031518	354.618257	-412.055689	145.490698	432.711079	-390.063408	220.716471	135.763876	-341.134347	-217.827774	832.090308	-214.426691	-103.974451	80.455147	-418.335336	-104.006858	80.507765	-18.407141	
752	3.7600	608.462925	1293.181390	-23.874612	600.034302	1258.606089	-355.105960	576.991356	1334.426755	-190.415628	565.432042	1190.087054	-170.873725	523.625346	1038.067826	63.834728	640.040137	881.855052	-48.873295	493.345729	1026.008180	-486.615270	640.370332	884.030055	-415.706632	54.650993	1151.262958	-280.166832	253.936528	1140.139992	-389.774656	194.080765	1169.788168	-99.349459	259.168487	1055.959604	-346.884590	191.610918	1091.405870	-105.450849	89.497360	1211.602237	-228.523295	123.101903	1207.005944	-327.589973	83.400468	1080.480167	-65.639044	129.959069	1015.887331	-438.681213	187.566009	995.013171	-22.650675	275.793754	981.559747	-20.555886	340.831730	929.039458	-6.572084	289.636124	1014.840502	-30.589606	440.215720	879.074117	-9.987687	452.897489	856.205216	-133.538099	350.222783	805.699335	5.749565	306.420127	731.293266	-14.352518	231.911643	689.223159	-28.544643	331.151674	712.798530	-36.900289	155.648880	609.783771	-56.224796	190.998494	618.609825	-132.385875	100.753940	615.099971	-103.807426	299.497321	474.994438	-106.033690	217.240024	494.863151	-42.401883	145.876010	898.913597	-450.290506	175.000518	819.325067	-431.574948	209.863733	824.357717	-420.507188	158.285760	732.923634	-417.773260	169.642362	629.457857	-393.811691	153.901453	625.192782	-276.579520	49.715197	272.581513	-395.669621	67.472396	288.005766	-304.941535	-4.248748	267.660915	-351.753891	127.940190	143.805380	-402.352706	106.344038	524.686533	-428.326701	112.908584	439.386814	-415.317147	74.124578	358.905005	-412.469145	142.144219	436.510570	-390.886198	213.024383	135.377470	-341.066248	-217.832341	832.114983	-214.383733	-103.980870	80.474387	-418.357112	-104.016732	80.529329	-18.415424	
753	3.7650	611.337251	1289.557188	-22.987038	599.494772	1261.236228	-353.895314	578.224303	1334.512114	-188.143087	565.907366	1190.383128	-170.517651	522.908140	1036.165255	65.801035	639.803280	881.964862	-48.682185	493.471543	1027.632487	-484.491138	640.764712	884.315949	-415.667082	54.611042	1156.240332	-280.670276	253.798255	1144.180492	-388.614100	193.877303	1172.452184	-97.817467	258.416248	1059.787353	-346.171095	190.509117	1094.354908	-104.714590	90.007836	1215.783766	-227.237814	123.517009	1211.596958	-326.210123	82.150962	1084.584661	-65.638637	129.522126	1020.055318	-438.619051	185.739941	997.329081	-23.237739	273.963480	983.607196	-21.434450	338.819079	930.709632	-7.983661	287.912819	1016.895525	-31.146060	439.051970	880.888774	-12.074358	451.637061	858.142855	-136.040988	349.964643	806.295832	3.354879	307.362423	730.733128	-15.508260	233.769270	687.621087	-29.078952	332.362846	712.274732	-37.935650	158.570347	605.760645	-56.034392	192.409242	615.586403	-132.211245	102.797418	608.896529	-103.358661	306.772917	476.576658	-106.012821	223.831161	492.977975	-42.132700	145.183524	902.728846	-449.969110	174.083933	822.986405	-431.492472	209.066820	827.812892	-420.665875	157.076670	736.713905	-417.418830	168.109996	633.155786	-393.965149	153.622826	628.982786	-276.156783	44.716920	276.644794	-395.993967	62.450126	291.343417	-305.392710	-9.034519	272.716134	-351.504875	120.427396	146.099820	-402.232739	103.677609	529.143225	-428.525746	109.754153	443.691157	-415.546227	70.440931	363.394255	-412.660269	139.241753	440.429550	-391.384624	205.257903	135.677968	-340.950968	-217.834143	832.138497	-214.322549	-103.977600	80.520378	-418.370913	-104.021461	80.535209	-18.406530	
754	3.7700	613.943196	1285.879302	-22.053274	598.987901	1263.681260	-352.699979	579.432064	1334.646392	-185.804620	566.383321	1190.689684	-170.091343	522.146304	1033.945156	67.722531	639.521832	881.936593	-48.496854	493.563079	1029.124057	-482.419117	640.839296	884.195753	-415.333160	53.782424	1160.180990	-277.281245	253.376491	1148.404409	-387.243804	193.765142	1175.009371	-96.291013	257.422153	1063.700361	-345.441091	189.614268	1097.335913	-103.794898	90.544149	1219.998437	-225.631701	123.907320	1215.963408	-325.004935	81.133827	1088.785916	-65.650593	128.889159	1024.273838	-438.445019	183.946777	999.550112	-23.702198	272.092518	985.253715	-22.159200	336.616658	931.942841	-9.286776	286.489335	1018.351256	-32.283126	437.728198	881.587226	-14.008431	448.834986	861.119643	-138.177265	349.439587	805.860044	1.017512	307.975268	729.212191	-16.678054	235.103690	684.847015	-29.520283	333.283912	710.988736	-38.911806	161.228770	601.040434	-55.863405	193.736800	611.756666	-132.181139	104.675539	601.881240	-102.858720	313.700101	477.873239	-105.915311	230.313356	490.552081	-41.837381	144.589117	906.463508	-449.541060	173.537533	826.638114	-431.235986	209.183727	831.929428	-421.451456	156.487216	740.453016	-416.879378	167.802183	636.676774	-393.854676	154.609615	632.481574	-275.607202	39.403100	280.953745	-396.185361	57.535412	294.931037	-305.825164	-14.393699	277.465627	-350.784463	112.895346	148.936015	-402.063695	101.941630	533.462512	-428.125903	107.106433	447.940777	-415.418566	66.928542	368.148118	-412.616814	136.799463	444.369281	-391.591031	197.406051	136.733006	-340.946462	-217.843416	832.153072	-214.251034	-103.967629	80.546959	-418.361306	-103.997952	80.541117	-18.370361	
